<svg xmlns="http://www.w3.org/2000/svg" fill="none" viewBox="-0.5 -0.5 20 20" id="Clapperboard-Edit--Streamline-Solar" height="20" width="20"><desc>Clapperboard Edit Streamline Icon: https://streamlinehq.com</desc><g id="Line Duotone/Video Audio Sound/Clapperboard Edit"><path id="Vector" stroke="#9282FA" stroke-linecap="round" d="M17.020833333333336 6.333333333333334h-15.041666666666668M5.541666666666667 6.333333333333334l2.7708333333333335 -4.354166666666667m2.375 4.354166666666667L13.458333333333334 1.979166666666667" stroke-width="1"></path><path id="Vector_2" stroke="#9282FA" stroke-linecap="round" d="M17.41500416666667 8.3125c-0.012904166666666666 -2.9543416666666666 -0.12840833333333335 -4.540525000000001 -1.1577333333333333 -5.5697945833333335C15.09795416666667 1.5833333333333335 13.231916666666667 1.5833333333333335 9.5 1.5833333333333335 5.76804375 1.5833333333333335 3.902069583333334 1.5833333333333335 2.742705416666667 2.742705416666667 1.5833333333333335 3.902069583333334 1.5833333333333335 5.76804375 1.5833333333333335 9.5c0 3.731916666666667 0 5.597954166666668 1.1593720833333334 6.757270833333335C3.72502125 17.23965 5.214605416666667 17.389591666666668 7.916666666666668 17.412550000000003" stroke-width="1"></path><path id="Vector_3" stroke="#9282FA" d="m14.69491666666667 11.032191666666668 0.33020416666666674 -0.33020416666666674c0.5471208333333334 -0.5471208333333334 1.434104166666667 -0.5471208333333334 1.9812250000000002 0s0.5471208333333334 1.434104166666667 0 1.9812250000000002l-0.33020416666666674 0.33020416666666674m-1.9812250000000002 -1.9812250000000002s0.04132500000000001 0.7016541666666667 0.6604083333333335 1.320816666666667c0.6191625000000001 0.6190833333333334 1.320816666666667 0.6604083333333335 1.320816666666667 0.6604083333333335m-1.9812250000000002 -1.9812250000000002L11.659270833333334 14.067916666666667c-0.205675 0.20559583333333334 -0.30843333333333334 0.3083541666666667 -0.3968625 0.4217208333333333 -0.10426250000000002 0.1337125 -0.19372083333333334 0.2784291666666667 -0.26663333333333333 0.4315375000000001 -0.06190833333333334 0.12975416666666667 -0.107825 0.2676625 -0.1998166666666667 0.5435583333333334l-0.29442083333333335 0.8831833333333333 -0.09523750000000002 0.28571250000000004m6.269841666666667 -3.6202125L13.640416666666669 16.0490625c-0.20559583333333334 0.205675 -0.3083541666666667 0.30843333333333334 -0.4217208333333333 0.3968625 -0.1337125 0.10426250000000002 -0.2784291666666667 0.19372083333333334 -0.4315375000000001 0.26663333333333333 -0.12975416666666667 0.06190833333333334 -0.2676625 0.107825 -0.5435583333333334 0.1998166666666667l-0.8831833333333333 0.29442083333333335 -0.28571250000000004 0.09523750000000002m-0.6684041666666668 -0.6684041666666668 -0.09523750000000002 0.28579166666666667c-0.045283333333333335 0.13569166666666668 -0.009895833333333335 0.28539583333333335 0.09127916666666668 0.38657083333333336 0.101175 0.101175 0.2508791666666667 0.1365625 0.38657083333333336 0.09127916666666668l0.28579166666666667 -0.09523750000000002m-0.6684041666666668 -0.6684041666666668 0.6684041666666668 0.6684041666666668" stroke-width="1"></path></g></svg>